<?xml version="1.0" standalone="no"?>
<!DOCTYPE svg PUBLIC "-//W3C//DTD SVG 20010904//EN"
 "http://www.w3.org/TR/2001/REC-SVG-20010904/DTD/svg10.dtd">
<svg version="1.0" xmlns="http://www.w3.org/2000/svg"
 width="840.000000pt" height="481.000000pt" viewBox="0 0 840.000000 481.000000"
 preserveAspectRatio="xMidYMid meet">

<g transform="translate(0.000000,481.000000) scale(0.100000,-0.100000)"
fill="#000000" stroke="none">
<path d="M3725 4383 c-247 -7 -657 -43 -740 -65 -39 -10 -40 -10 -15 -22 26
-13 127 -9 760 24 254 14 972 8 1180 -9 63 -5 206 -13 317 -17 173 -6 204 -5
217 8 13 14 6 17 -72 27 -157 20 -403 41 -602 51 -171 9 -787 11 -1045 3z"/>
<path d="M2756 4243 c-9 -10 -7 -58 3 -68 11 -12 19 -697 27 -2270 5 -965 8
-1143 20 -1162 42 -66 370 -170 659 -209 124 -16 177 -16 75 1 -41 7 -92 20
-113 29 -37 16 -38 18 -25 38 31 47 113 48 168 2 l30 -26 0 26 c0 60 38 96
103 96 l32 1 -38 18 c-21 10 -47 30 -56 45 l-18 28 -5 -56 c-7 -90 -44 -112
-122 -76 -43 20 -64 39 -83 80 -11 23 -12 20 -12 -32 -1 -63 -13 -103 -33
-110 -31 -11 -78 13 -108 56 -16 25 -30 52 -30 62 0 33 -9 9 -15 -41 -7 -58
-7 -59 -37 -51 -33 8 -49 21 -52 39 -1 9 -24 44 -51 79 -43 54 -50 60 -53 41
-3 -21 -4 -22 -21 -5 -34 33 -113 163 -108 177 8 20 43 7 71 -26 l24 -28 7 35
c4 25 15 41 35 52 24 14 28 21 23 47 -4 16 -10 32 -15 33 -4 2 -8 10 -8 18 0
17 -20 19 -20 2 0 -7 -19 25 -42 72 -22 47 -48 94 -57 105 -10 11 -16 26 -15
33 1 6 2 16 3 22 0 5 7 7 14 4 7 -2 20 9 30 26 12 20 26 30 42 30 23 0 23 1
11 33 -7 17 -11 37 -9 44 2 6 -1 14 -6 18 -14 8 -14 92 -1 100 5 3 7 12 4 19
-3 9 3 17 16 21 28 9 20 29 -13 33 -16 2 -27 10 -27 18 0 8 5 12 10 9 6 -3 10
0 10 8 0 8 -9 17 -21 20 -18 5 -19 8 -8 29 7 13 13 27 14 32 0 5 8 12 19 16
15 5 9 10 -28 24 -38 14 -44 21 -37 34 7 13 2 20 -20 34 l-29 18 0 250 0 250
43 -6 c23 -3 52 -7 64 -10 17 -3 21 -1 16 11 -3 9 -12 14 -20 11 -9 -4 -13 -1
-10 6 2 7 16 13 30 13 23 0 30 5 26 18 -4 13 -10 52 -16 101 -4 44 -3 57 5 52
9 -5 9 -1 3 16 -5 13 -10 48 -12 78 l-4 55 30 -3 c21 -2 26 0 16 6 -21 15 21
51 66 56 53 7 75 -15 67 -65 -4 -24 -2 -44 5 -53 8 -10 9 -16 1 -21 -5 -3 -17
-20 -26 -36 -12 -24 -13 -34 -4 -45 8 -8 9 -24 5 -41 -4 -16 -9 -38 -11 -51
-1 -12 -10 -29 -18 -38 -9 -8 -16 -21 -16 -27 1 -7 9 -2 20 11 20 24 46 21 36
-3 -6 -17 41 -49 74 -50 49 -2 185 -18 193 -22 4 -3 36 -6 71 -9 61 -4 63 -3
59 19 -4 27 19 73 35 69 7 -1 12 2 12 8 0 13 -23 13 -37 -1 -16 -16 -30 -4
-38 33 -9 46 -6 122 5 126 6 2 10 19 10 39 0 43 20 40 36 -6 l11 -33 18 28
c17 27 17 28 -5 46 -21 17 -24 30 -26 96 -2 42 -7 91 -13 107 -9 29 -9 28 -10
-15 -1 -54 -10 -90 -22 -90 -12 0 -12 67 0 72 5 2 3 21 -4 43 -7 22 -16 57
-19 77 -4 21 -18 51 -31 67 -22 25 -23 30 -10 41 19 16 10 30 -20 30 -13 0
-25 5 -27 11 -4 13 -38 1 -38 -15 0 -6 -13 -27 -28 -46 -39 -47 -52 -74 -52
-104 0 -22 -5 -26 -29 -26 -32 0 -74 -41 -65 -64 3 -7 -3 -19 -12 -27 -14 -12
-19 -10 -36 11 -40 52 -48 60 -58 60 -5 0 -10 -9 -10 -19 0 -11 -19 -40 -42
-65 -34 -36 -46 -44 -58 -36 -9 6 -11 13 -5 18 6 4 12 14 14 22 2 8 6 23 8 33
3 9 0 17 -6 17 -7 0 -9 4 -6 10 15 25 -33 -7 -64 -42 -18 -22 -36 -37 -39 -34
-5 6 48 117 60 126 7 6 38 74 38 85 0 4 -5 3 -12 -1 -7 -5 -9 -2 -5 8 3 9 -2
23 -13 33 -17 15 -31 56 -34 100 -1 11 -5 25 -9 32 -16 25 -29 383 -14 383 5
0 7 -7 3 -15 -3 -8 0 -15 7 -15 8 0 12 11 11 28 -2 40 -2 40 -21 46 -23 7 120
-1 167 -9 51 -9 61 20 52 155 l-7 105 -55 8 c-30 5 -62 15 -71 23 -24 21 -80
36 -94 24 -17 -14 -55 -1 -48 17 4 11 15 13 44 8 53 -9 50 9 -3 29 -24 9 -32
14 -19 12 28 -6 50 17 51 52 0 19 5 22 48 23 38 1 42 2 22 9 l-25 8 28 1 c15
1 27 -2 27 -7 0 -4 26 -7 57 -5 32 1 60 -3 64 -9 5 -7 9 -7 13 1 4 6 -3 12
-16 15 -85 18 -166 30 -183 27 -16 -3 -17 -1 -6 13 7 9 17 13 22 10 5 -3 9 0
9 6 0 7 -7 10 -15 6 -9 -3 -15 0 -15 10 0 10 6 14 14 11 7 -3 55 -8 107 -11
115 -6 105 -3 -84 29 -81 13 -156 29 -165 35 -14 10 -13 10 8 6 14 -4 90 -16
170 -27 163 -23 220 -35 220 -49 0 -6 24 -10 53 -9 38 0 47 3 32 9 -18 8 -17
9 7 9 17 1 28 -5 31 -16 3 -13 5 -14 6 -3 1 13 88 15 723 14 784 -2 1096 6
1283 30 139 19 252 44 262 59 4 6 -3 8 -21 3 -331 -83 -1720 -108 -2476 -45
-69 6 -165 17 -214 25 -49 8 -94 13 -101 10 -7 -2 -22 2 -33 9 -10 8 -22 11
-26 8z m234 -415 c0 -5 5 -6 12 -2 6 4 16 1 22 -7 6 -8 18 -14 26 -14 9 0 14
-7 12 -19 -2 -11 1 -15 8 -11 6 4 8 16 4 27 -4 14 -2 18 5 14 14 -9 15 -73 1
-81 -5 -3 -10 1 -10 10 0 10 -4 13 -12 8 -27 -16 -38 -12 -27 9 13 25 4 35
-16 18 -8 -7 -15 -8 -15 -2 0 5 -8 9 -17 8 -10 0 -19 8 -22 22 -3 13 -10 23
-16 22 -5 -1 -11 3 -13 8 -1 5 11 7 28 4 16 -2 30 -9 30 -14z m67 6 c-3 -3
-12 -4 -19 -1 -8 3 -5 6 6 6 11 1 17 -2 13 -5z m-155 -27 c3 -13 0 -24 -6 -24
-6 0 -11 11 -11 24 0 13 3 23 6 23 4 0 9 -10 11 -23z m198 -127 l0 -37 -82 -2
c-45 -1 -80 0 -77 3 3 3 35 7 72 8 62 2 67 4 67 25 0 13 -1 23 -2 24 -2 0 -39
3 -83 6 -112 7 -108 14 8 12 l97 -1 0 -38z m109 -1244 c33 -35 22 -54 -12 -22
-26 24 -35 46 -19 46 5 0 19 -11 31 -24z m-268 -938 c10 -13 18 -34 18 -48 -1
-24 -1 -24 -9 4 -5 15 -17 37 -26 47 -9 10 -14 19 -10 19 4 0 16 -10 27 -22z"/>
<path d="M5616 4214 c-52 -30 -171 -51 -391 -69 -187 -16 -230 -23 -157 -24
35 -1 42 -4 42 -21 0 -15 -7 -20 -25 -20 -14 0 -25 -4 -25 -10 0 -5 -13 -10
-29 -10 -37 0 -62 -10 -55 -21 3 -5 10 -9 15 -9 6 0 8 4 5 8 -2 4 30 8 72 8
42 -1 102 2 132 7 128 17 289 20 305 7 15 -12 14 -15 -9 -27 -14 -8 -26 -20
-26 -27 0 -8 -6 -16 -12 -19 -9 -3 -7 -9 7 -20 18 -14 21 -14 27 1 7 18 9 10
12 -43 1 -12 8 -20 18 -19 9 1 14 -4 12 -10 -3 -7 -6 -65 -7 -129 -2 -107 3
-138 16 -104 3 6 6 1 6 -12 1 -15 -3 -21 -12 -18 -26 10 -33 -27 -26 -148 12
-201 11 -413 -3 -417 -16 -6 -47 -105 -47 -155 -1 -32 -6 -46 -21 -55 -23 -15
-26 -28 -6 -28 8 0 18 -5 22 -12 5 -7 2 -9 -8 -6 -9 4 -22 -4 -33 -18 -10 -13
-26 -24 -36 -24 -10 0 -20 -4 -23 -9 -4 -5 12 -7 36 -4 43 4 43 4 22 -14 -12
-10 -30 -23 -40 -30 -16 -10 -10 -11 31 -6 l50 6 -24 -27 c-14 -14 -30 -26
-38 -26 -7 0 -13 -6 -13 -14 0 -8 -7 -17 -16 -20 -9 -4 -14 -9 -11 -12 3 -3
12 -2 19 2 16 11 102 34 107 29 2 -2 -9 -15 -24 -29 -24 -23 -25 -26 -9 -27
18 0 18 -1 -1 -8 -11 -5 -27 -6 -35 -4 -8 2 8 -7 35 -21 48 -24 49 -24 20 -27
-16 -1 -46 -1 -65 0 l-35 2 40 -19 c22 -10 47 -27 55 -37 14 -17 13 -18 -18
-12 -18 4 -31 3 -28 -2 3 -4 -9 -7 -27 -5 l-32 4 25 -17 c14 -9 31 -23 39 -31
9 -8 24 -11 43 -6 21 4 28 3 24 -5 -4 -6 -14 -11 -23 -11 -13 0 -13 -3 -3 -16
10 -11 23 -14 52 -9 l38 7 0 -46 c0 -24 -4 -48 -10 -51 -14 -8 -13 -78 1 -92
14 -14 0 -38 -21 -38 -10 0 -16 -12 -18 -37 -2 -29 0 -38 12 -38 9 0 16 6 16
13 0 6 6 4 12 -7 17 -30 6 -228 -15 -260 -22 -32 -52 -111 -61 -155 -6 -32 -5
-33 11 -18 31 27 46 24 53 -8 3 -18 1 -34 -6 -40 -7 -5 -13 -21 -14 -35 -4
-45 -1 -52 18 -45 14 5 15 4 4 -7 -11 -11 -16 -9 -31 8 l-17 22 -17 -39 c-9
-22 -17 -43 -17 -48 0 -5 -12 -23 -26 -40 -17 -20 -28 -49 -33 -83 -4 -29 -13
-63 -19 -76 -12 -20 -11 -22 11 -22 29 0 59 -31 59 -62 1 -57 -30 -131 -68
-166 -42 -36 -31 -30 91 59 l70 51 -50 -46 c-27 -25 -46 -45 -41 -46 5 0 1 -8
-8 -19 -15 -16 -15 -19 -2 -24 9 -4 21 2 28 11 7 10 27 19 43 20 28 1 28 1 10
-10 -11 -7 -22 -13 -25 -13 -3 0 -11 -4 -17 -8 -17 -11 -18 -163 -1 -173 6 -4
14 -2 16 4 2 7 13 12 25 12 20 0 19 -2 -8 -19 -18 -11 -34 -15 -39 -10 -15 14
-23 11 -29 -12 -3 -11 -15 -23 -26 -26 -12 -3 -21 -10 -21 -15 0 -5 -6 -6 -12
-2 -7 4 -10 3 -5 -1 4 -5 -1 -17 -10 -28 -20 -23 -2 -16 30 11 15 14 17 13 17
-4 0 -12 -17 -30 -42 -47 -40 -26 -65 -35 -158 -57 -19 -5 -53 -13 -74 -19
-28 -7 -44 -7 -53 1 -10 8 -34 3 -96 -20 -45 -17 -91 -33 -102 -36 -32 -8 94
4 155 15 268 50 488 120 546 174 l34 32 0 179 c0 198 7 1389 15 2502 3 481 9
730 16 743 5 11 9 28 7 37 -3 16 -6 16 -42 -4z m-476 -114 c0 -11 -4 -20 -10
-20 -5 0 -10 9 -10 20 0 11 5 20 10 20 6 0 10 -9 10 -20z m-43 -36 c-3 -3 -12
-4 -19 -1 -8 3 -5 6 6 6 11 1 17 -2 13 -5z m420 -1966 c-3 -7 -5 -2 -5 12 0
14 2 19 5 13 2 -7 2 -19 0 -25z m-9 -655 c-13 -3 -18 -15 -18 -44 0 -36 2 -40
20 -35 53 15 61 14 25 -4 -35 -17 -40 -23 -41 -55 -1 -34 0 -36 25 -31 25 6
25 6 7 -9 -40 -31 -46 -21 -46 78 0 97 3 108 29 106 13 -1 13 -2 -1 -6z m3
-529 l-9 -39 -1 50 c-1 33 2 46 9 39 7 -7 7 -24 1 -50z m-24 -41 c-2 -16 -4
-5 -4 22 0 28 2 40 4 28 2 -13 2 -35 0 -50z m53 -3 c0 -5 -5 -10 -11 -10 -5 0
-7 5 -4 10 3 6 8 10 11 10 2 0 4 -4 4 -10z"/>
<path d="M3180 4060 c0 -5 4 -10 9 -10 6 0 13 5 16 10 3 6 -1 10 -9 10 -9 0
-16 -4 -16 -10z"/>
<path d="M3220 4060 c0 -5 5 -10 10 -10 6 0 10 5 10 10 0 6 -4 10 -10 10 -5 0
-10 -4 -10 -10z"/>
<path d="M3260 4050 c0 -5 12 -10 26 -10 14 0 23 4 19 10 -3 6 -15 10 -26 10
-10 0 -19 -4 -19 -10z"/>
<path d="M3331 4051 c-26 -17 -10 -19 304 -36 246 -14 1156 -12 1142 2 -2 2
-271 6 -598 8 -327 3 -610 7 -629 10 -19 3 -62 7 -94 9 -32 3 -71 8 -85 11
-14 3 -32 1 -40 -4z"/>
<path d="M4896 4039 c2 -4 -19 -10 -48 -12 -44 -3 -41 -4 17 -4 39 0 76 2 83
5 25 9 11 21 -23 20 -19 -1 -32 -5 -29 -9z"/>
<path d="M5393 4013 c-31 -4 -33 -7 -33 -44 0 -37 2 -40 23 -34 12 4 27 8 32
9 6 0 13 8 17 16 9 21 10 60 1 58 -5 0 -23 -3 -40 -5z"/>
<path d="M2920 3990 c0 -5 5 -10 11 -10 5 0 7 5 4 10 -3 6 -8 10 -11 10 -2 0
-4 -4 -4 -10z"/>
<path d="M5323 3965 c1 -19 4 -35 8 -35 8 0 17 42 11 58 -8 25 -20 11 -19 -23z"/>
<path d="M5208 3983 c-13 -3 -18 -14 -17 -36 1 -18 3 -24 6 -14 5 21 23 23 23
2 0 -16 9 -19 34 -9 10 4 16 18 16 35 0 30 -14 35 -62 22z"/>
<path d="M5291 3963 c-1 -18 4 -33 9 -33 12 0 12 17 0 45 -7 17 -9 15 -9 -12z"/>
<path d="M2954 3949 c-6 -10 5 -15 59 -24 20 -3 37 -2 37 3 0 12 -89 31 -96
21z"/>
<path d="M5427 3873 c-14 -13 -7 -62 10 -72 16 -8 14 -10 -10 -16 -18 -5 -27
-14 -27 -27 0 -18 5 -19 38 -14 26 4 31 3 17 -4 -11 -5 -32 -9 -47 -9 -22 -1
-28 -6 -28 -24 0 -24 0 -24 68 -12 58 9 67 13 64 30 -2 11 -8 22 -13 23 -5 2
-9 15 -9 28 0 13 -4 24 -10 24 -5 0 -10 9 -10 20 0 11 -4 20 -10 20 -5 0 -10
9 -10 20 0 20 -11 26 -23 13z"/>
<path d="M5287 3844 c-4 -4 -7 -32 -7 -61 0 -47 3 -54 18 -51 14 3 17 14 17
57 0 50 -11 72 -28 55z m23 -59 c0 -19 -4 -35 -10 -35 -5 0 -10 16 -10 35 0
19 5 35 10 35 6 0 10 -16 10 -35z"/>
<path d="M5234 3826 c-3 -7 -4 -33 -2 -57 2 -32 8 -45 21 -47 14 -3 17 4 17
37 0 23 -4 41 -10 41 -5 0 -10 5 -10 11 0 5 5 7 10 4 6 -3 10 1 10 9 0 20 -29
21 -36 2z m23 -78 c-3 -7 -5 -2 -5 12 0 14 2 19 5 13 2 -7 2 -19 0 -25z"/>
<path d="M4107 3763 c-4 -3 -7 -24 -7 -45 0 -30 4 -38 18 -38 10 0 13 3 6 8
-6 4 -10 24 -10 45 1 20 1 37 1 37 -1 0 -5 -3 -8 -7z"/>
<path d="M4185 3760 c-3 -5 1 -10 10 -10 9 0 13 5 10 10 -3 6 -8 10 -10 10 -2
0 -7 -4 -10 -10z"/>
<path d="M4240 3759 c0 -5 5 -7 10 -4 6 3 10 8 10 11 0 2 -4 4 -10 4 -5 0 -10
-5 -10 -11z"/>
<path d="M4444 3756 c-10 -26 0 -71 16 -71 22 0 37 50 20 69 -16 20 -29 20
-36 2z m31 -7 c9 -14 -3 -59 -15 -59 -6 0 -10 16 -10 35 0 34 12 46 25 24z"/>
<path d="M4510 3740 c0 -16 2 -30 4 -30 2 0 6 14 8 30 3 17 1 30 -4 30 -4 0
-8 -13 -8 -30z"/>
<path d="M4590 3761 c0 -5 7 -12 16 -15 14 -5 15 -4 4 9 -14 17 -20 19 -20 6z"/>
<path d="M3900 3750 c0 -5 4 -10 9 -10 6 0 13 5 16 10 3 6 -1 10 -9 10 -9 0
-16 -4 -16 -10z"/>
<path d="M3998 3720 c2 -22 6 -40 8 -40 2 0 4 18 4 40 0 22 -3 40 -8 40 -4 0
-6 -18 -4 -40z"/>
<path d="M4042 3720 c0 -25 2 -37 5 -27 2 9 8 17 13 17 5 0 11 -8 13 -17 3
-10 5 2 5 27 0 25 -2 37 -5 28 -2 -10 -8 -18 -13 -18 -5 0 -11 8 -13 18 -3 9
-5 -3 -5 -28z"/>
<path d="M4299 3739 c-3 -14 0 -30 8 -37 15 -15 16 -4 4 38 l-7 25 -5 -26z"/>
<path d="M4740 3749 c0 -5 5 -7 10 -4 6 3 10 8 10 11 0 2 -4 4 -10 4 -5 0 -10
-5 -10 -11z"/>
<path d="M3750 3704 c0 -38 3 -45 18 -42 21 4 29 53 11 74 -20 25 -29 15 -29
-32z m30 -5 c0 -16 -4 -29 -10 -29 -5 0 -10 16 -10 36 0 21 4 33 10 29 6 -3
10 -19 10 -36z"/>
<path d="M4351 3735 c0 -11 6 -29 14 -39 19 -25 19 -17 0 25 -10 24 -14 28
-14 14z"/>
<path d="M4835 3739 c-4 -6 -5 -12 -2 -15 2 -3 7 2 10 11 7 17 1 20 -8 4z"/>
<path d="M4895 3740 c4 -6 11 -8 16 -5 14 9 11 15 -7 15 -8 0 -12 -5 -9 -10z"/>
<path d="M3702 3698 c2 -26 9 -43 18 -46 12 -4 13 -2 3 9 -6 8 -10 29 -9 47 1
17 -2 32 -7 32 -4 0 -7 -19 -5 -42z"/>
<path d="M3854 3716 c0 -13 7 -29 15 -37 12 -11 13 -9 8 12 -4 13 -7 30 -7 37
0 6 -4 12 -9 12 -5 0 -8 -11 -7 -24z"/>
<path d="M4241 3724 c0 -11 3 -14 6 -6 3 7 2 16 -1 19 -3 4 -6 -2 -5 -13z"/>
<path d="M3583 3714 c-8 -22 8 -66 27 -72 11 -4 10 -1 -3 12 -22 23 -22 63 1
69 16 4 16 5 -1 6 -10 0 -20 -6 -24 -15z"/>
<path d="M3912 3700 c0 -19 2 -27 5 -17 2 9 2 25 0 35 -3 9 -5 1 -5 -18z"/>
<path d="M4590 3719 c0 -5 5 -7 10 -4 6 3 10 8 10 11 0 2 -4 4 -10 4 -5 0 -10
-5 -10 -11z"/>
<path d="M4636 3714 c-8 -21 -8 -34 2 -34 4 0 8 11 8 25 2 29 -1 32 -10 9z"/>
<path d="M4740 3714 c0 -8 5 -12 10 -9 6 4 8 11 5 16 -9 14 -15 11 -15 -7z"/>
<path d="M3500 3716 c0 -2 7 -7 16 -10 8 -3 12 -2 9 4 -6 10 -25 14 -25 6z"/>
<path d="M3550 3694 c0 -16 5 -36 10 -44 6 -10 7 -2 3 25 -7 49 -13 58 -13 19z"/>
<path d="M4690 3715 c0 -5 5 -17 10 -25 5 -8 10 -10 10 -5 0 6 -5 17 -10 25
-5 8 -10 11 -10 5z"/>
<path d="M4787 3713 c-9 -9 -9 -43 1 -43 4 0 7 11 7 25 0 14 0 25 -1 25 0 0
-4 -3 -7 -7z"/>
<path d="M3640 3697 c0 -7 10 -21 21 -31 12 -10 19 -12 15 -4 -3 7 -9 21 -12
31 -7 20 -24 23 -24 4z"/>
<path d="M5278 3702 c-10 -2 -15 -9 -11 -18 3 -8 0 -14 -6 -14 -6 0 -11 4 -11
9 0 5 -9 11 -20 14 -22 6 -28 -8 -7 -16 10 -4 10 -6 0 -6 -7 -1 -13 -5 -13
-11 0 -6 20 -8 48 -5 79 9 91 13 89 35 -1 20 -18 23 -69 12z"/>
<path d="M4240 3690 c0 -5 5 -10 11 -10 5 0 7 5 4 10 -3 6 -8 10 -11 10 -2 0
-4 -4 -4 -10z"/>
<path d="M3511 3674 c0 -11 3 -14 6 -6 3 7 2 16 -1 19 -3 4 -6 -2 -5 -13z"/>
<path d="M4830 3681 c0 -6 4 -13 10 -16 6 -3 7 1 4 9 -7 18 -14 21 -14 7z"/>
<path d="M4976 3658 c3 -5 10 -6 15 -3 13 9 11 12 -6 12 -8 0 -12 -4 -9 -9z"/>
<path d="M5456 3653 c-4 -4 -15 -8 -24 -8 -9 0 -18 -7 -20 -16 -2 -12 5 -14
33 -11 26 3 35 9 35 23 0 19 -11 25 -24 12z"/>
<path d="M5270 3624 c0 -14 -3 -15 -12 -6 -7 7 -19 12 -27 12 -14 0 -14 -1 -1
-10 10 -6 11 -10 3 -10 -7 0 -13 -4 -13 -8 0 -4 27 -4 60 2 64 10 76 29 22 34
-25 3 -32 -1 -32 -14z"/>
<path d="M2950 3582 c0 -11 9 -22 20 -25 11 -3 20 -1 20 4 0 5 -4 9 -10 9 -5
0 -9 5 -7 11 1 6 -4 14 -10 16 -8 3 -13 -3 -13 -15z"/>
<path d="M3000 3570 c6 -11 12 -20 14 -20 2 0 2 9 -1 20 -3 11 -9 20 -15 20
-5 0 -4 -9 2 -20z"/>
<path d="M3735 3578 c-73 -40 -109 -107 -103 -196 4 -61 7 -67 46 -103 25 -24
52 -40 69 -40 55 -3 119 2 151 12 30 10 32 14 32 55 0 25 5 54 10 65 10 17 7
19 -35 19 l-45 0 0 -37 c0 -83 -17 -100 -82 -83 -132 36 -86 290 53 290 31 0
47 -7 70 -29 16 -16 29 -24 29 -18 0 7 3 22 6 33 5 17 -1 24 -27 33 -41 14
-148 14 -174 -1z"/>
<path d="M3038 3573 c6 -3 10 -8 8 -12 -3 -4 1 -8 9 -8 24 0 17 23 -7 24 -13
0 -17 -1 -10 -4z"/>
<path d="M2950 3540 c0 -5 5 -10 10 -10 6 0 10 5 10 10 0 6 -4 10 -10 10 -5 0
-10 -4 -10 -10z"/>
<path d="M3283 3508 c-18 -13 -37 -33 -42 -46 -15 -31 -14 -162 0 -162 6 0 9
-6 6 -14 -3 -8 10 -43 28 -78 19 -34 35 -55 35 -45 0 24 26 21 44 -5 12 -17
16 -19 16 -6 0 9 3 23 6 31 4 11 -2 16 -22 19 -21 2 -35 14 -52 43 -19 34 -22
49 -17 99 6 68 19 89 49 81 20 -6 20 -5 4 8 -10 8 -18 17 -18 21 0 4 21 -11
48 -34 53 -47 60 -41 44 35 -7 36 -11 40 -40 43 -20 2 -32 9 -32 18 0 20 -21
17 -57 -8z"/>
<path d="M4694 3482 l-30 -3 -11 -102 c-7 -57 -15 -109 -18 -118 -4 -12 2 -14
34 -11 21 2 38 9 37 15 0 7 3 47 8 90 7 69 11 80 32 89 18 8 27 8 39 -2 13
-11 15 -26 10 -74 -3 -34 -8 -73 -11 -88 -5 -25 -3 -28 24 -28 29 0 30 1 41
75 15 101 14 131 -5 149 -19 20 -47 20 -84 1 -22 -11 -29 -12 -32 -2 -2 7 -15
11 -34 9z"/>
<path d="M4005 3472 c-6 -4 -16 -50 -23 -103 -6 -53 -14 -103 -17 -110 -4 -10
5 -15 34 -16 l39 -2 7 72 c10 97 19 117 50 117 14 0 25 -6 26 -12 1 -18 17 23
18 45 1 21 -32 23 -49 2 -7 -8 -16 -15 -21 -15 -5 0 -6 7 -3 15 5 11 -1 15
-22 15 -16 0 -34 -4 -39 -8z"/>
<path d="M4224 3466 c-31 -14 -74 -64 -74 -86 0 -7 -7 -10 -16 -6 -13 5 -14 3
-7 -6 5 -7 15 -32 22 -56 14 -51 49 -77 102 -75 40 2 84 25 93 49 5 13 3 13
-16 -1 -30 -20 -71 -19 -91 3 -30 33 -21 49 31 55 107 13 132 49 73 108 -33
32 -67 37 -117 15z m77 -42 c12 -33 10 -35 -41 -44 -33 -6 -40 -5 -40 9 0 26
29 61 51 61 12 0 23 -10 30 -26z"/>
<path d="M4463 3460 c-18 -10 -40 -34 -49 -52 -9 -18 -22 -36 -28 -40 -8 -5
-7 -8 2 -8 7 0 12 -13 12 -34 0 -48 40 -86 92 -86 44 0 93 21 102 45 5 14 3
14 -24 0 -39 -20 -56 -19 -80 7 -31 33 -25 45 28 52 79 11 102 24 102 58 0 68
-88 101 -157 58z m97 -55 c0 -13 -30 -25 -67 -25 -30 0 -29 21 3 55 l27 29 18
-23 c11 -13 19 -29 19 -36z"/>
<path d="M3315 3390 c-3 -5 1 -10 10 -10 9 0 13 5 10 10 -3 6 -8 10 -10 10 -2
0 -7 -4 -10 -10z"/>
<path d="M3355 3330 c3 -5 8 -10 11 -10 2 0 4 5 4 10 0 6 -5 10 -11 10 -5 0
-7 -4 -4 -10z"/>
<path d="M3855 3195 c-5 -2 -22 -6 -37 -9 -37 -8 -98 -63 -114 -103 -8 -18
-14 -54 -14 -80 0 -121 105 -180 254 -142 l42 10 10 65 9 64 -40 0 -40 0 -3
-52 c-2 -28 -5 -55 -8 -60 -3 -4 -23 -8 -44 -8 -47 0 -96 37 -105 81 -33 147
126 268 212 162 l23 -28 0 38 c0 30 -5 39 -22 46 -28 10 -109 21 -123 16z"/>
<path d="M4150 3187 c-44 -11 -69 -33 -67 -58 1 -10 2 -19 2 -19 1 0 19 9 41
19 71 35 88 75 24 58z m-20 -20 c0 -2 -10 -12 -22 -23 l-23 -19 19 23 c18 21
26 27 26 19z"/>
<path d="M4711 3100 c-24 -22 -38 -40 -32 -40 7 0 10 -8 7 -17 -2 -10 -8 -46
-11 -80 -6 -54 -4 -64 14 -82 25 -25 59 -27 87 -6 13 10 14 13 3 10 -31 -11
-42 20 -34 100 7 74 7 75 35 75 16 0 30 7 34 15 4 11 -2 15 -25 15 -28 0 -31
3 -27 25 7 33 1 31 -51 -15z"/>
<path d="M4089 3083 c-24 -4 -26 -8 -40 -113 l-14 -110 35 0 36 0 15 115 c9
75 11 114 4 114 -5 -1 -22 -4 -36 -6z"/>
<path d="M4245 3083 c-31 -4 -55 -27 -55 -50 0 -10 9 -7 29 8 39 28 66 22 66
-15 0 -26 -5 -31 -55 -48 -62 -21 -80 -39 -80 -80 0 -40 37 -57 87 -39 28 10
37 11 43 1 12 -19 63 2 65 26 17 156 17 170 3 182 -18 15 -63 21 -103 15z m37
-145 c-5 -41 -28 -61 -53 -47 -26 14 -24 34 7 58 38 30 51 27 46 -11z"/>
<path d="M4445 3083 c-18 -3 -22 -18 -35 -113 l-15 -110 36 0 36 0 7 80 c8 83
21 110 56 110 31 0 37 -26 25 -111 l-12 -79 36 0 c30 0 36 4 37 23 0 12 4 56
9 98 6 64 5 78 -10 92 -21 21 -57 22 -95 2 -27 -14 -30 -14 -30 0 0 15 -6 16
-45 8z"/>
<path d="M3551 2973 c7 -12 15 -20 18 -17 3 2 -3 12 -13 22 -17 16 -18 16 -5
-5z"/>
<path d="M3574 2930 c6 -18 37 -119 43 -139 2 -8 6 -11 9 -8 7 7 -31 124 -47
147 -9 13 -10 13 -5 0z"/>
<path d="M3702 2589 c-1 -15 -4 -42 -7 -60 -5 -31 -5 -32 5 -9 6 13 9 40 7 60
-3 25 -4 28 -5 9z"/>
<path d="M3020 2550 c0 -5 5 -10 10 -10 6 0 10 5 10 10 0 6 -4 10 -10 10 -5 0
-10 -4 -10 -10z"/>
<path d="M3046 2500 c17 -34 18 -34 45 -19 11 5 17 15 13 21 -4 7 -10 6 -15
-3 -8 -11 -13 -9 -28 9 -26 31 -32 28 -15 -8z"/>
<path d="M3785 2510 c-3 -5 -2 -10 4 -10 5 0 13 5 16 10 3 6 2 10 -4 10 -5 0
-13 -4 -16 -10z"/>
<path d="M3065 2429 c-11 -17 1 -21 15 -4 8 9 8 15 2 15 -6 0 -14 -5 -17 -11z"/>
<path d="M4078 2423 c6 -2 18 -2 25 0 6 3 1 5 -13 5 -14 0 -19 -2 -12 -5z"/>
<path d="M3597 2383 c-11 -24 -12 -31 -4 -20 18 22 27 22 27 -3 0 -11 5 -20
11 -20 8 0 9 11 5 31 -3 17 -6 35 -6 40 0 21 -18 6 -33 -28z"/>
<path d="M3731 2405 c-1 -13 12 -30 24 -32 6 -1 12 7 12 18 2 16 -1 18 -12 9
-10 -8 -14 -8 -18 2 -3 7 -6 9 -6 3z"/>
<path d="M4550 2396 c0 -2 8 -10 18 -17 15 -13 16 -12 3 4 -13 16 -21 21 -21
13z"/>
<path d="M4728 2393 c7 -3 16 -2 19 1 4 3 -2 6 -13 5 -11 0 -14 -3 -6 -6z"/>
<path d="M4430 2328 c0 -4 21 -8 47 -8 25 0 44 2 41 5 -8 9 -88 12 -88 3z"/>
<path d="M4373 2323 c9 -2 25 -2 35 0 9 3 1 5 -18 5 -19 0 -27 -2 -17 -5z"/>
<path d="M5492 2223 c-2 -32 2 -43 13 -43 8 0 15 5 15 10 0 6 -4 10 -9 10 -6
0 -12 15 -14 33 -3 28 -4 26 -5 -10z"/>
<path d="M4817 2203 c-11 -11 -8 -153 3 -153 6 0 10 33 10 80 0 80 -1 86 -13
73z"/>
<path d="M3610 2197 c0 -4 36 -112 46 -137 4 -9 13 5 27 40 l20 55 16 -47 c9
-26 19 -50 23 -54 8 -8 45 72 53 114 3 16 -4 7 -19 -23 l-24 -50 -11 28 c-6
15 -14 39 -17 52 -9 37 -20 30 -34 -20 -7 -25 -16 -45 -20 -45 -4 0 -13 20
-20 45 -7 25 -19 45 -26 45 -8 0 -14 -2 -14 -3z"/>
<path d="M3820 2120 c0 -47 4 -80 10 -80 6 0 10 15 10 34 0 39 20 62 38 44 7
-7 12 -27 12 -45 0 -18 5 -33 11 -33 6 0 9 19 7 48 -3 45 -4 47 -35 50 -29 3
-33 7 -33 33 0 16 -4 29 -10 29 -6 0 -10 -33 -10 -80z"/>
<path d="M4050 2115 c0 -60 3 -75 15 -75 12 0 15 15 15 75 0 60 -3 75 -15 75
-12 0 -15 -15 -15 -75z"/>
<path d="M4270 2105 c0 -57 3 -76 13 -72 7 2 11 15 9 30 -4 34 8 34 38 2 13
-14 33 -25 44 -25 17 0 14 6 -19 40 l-39 40 29 30 c16 16 24 30 19 30 -6 0
-21 -11 -34 -25 -29 -31 -41 -32 -37 -4 1 12 -4 24 -10 26 -10 4 -13 -15 -13
-72z"/>
<path d="M4720 2130 c-11 -11 -20 -27 -20 -35 0 -16 34 -55 48 -55 5 0 17 7
28 15 18 13 17 14 -10 12 -39 -3 -44 19 -6 26 34 7 37 18 14 41 -20 21 -30 20
-54 -4z m50 -10 c0 -5 -9 -10 -21 -10 -11 0 -17 5 -14 10 3 6 13 10 21 10 8 0
14 -4 14 -10z"/>
<path d="M3946 2124 c-19 -18 -21 -55 -4 -72 7 -7 24 -12 38 -12 34 0 50 17
50 52 0 43 -53 64 -84 32z m64 -38 c0 -22 -18 -39 -34 -33 -19 8 -22 63 -3 70
13 5 37 -19 37 -37z"/>
<path d="M4422 2124 c-30 -20 -29 -59 2 -79 19 -13 29 -14 45 -5 27 14 26 16
-6 15 -14 0 -28 6 -30 13 -3 8 6 12 26 12 35 0 41 19 15 44 -19 20 -24 20 -52
0z m48 -14 c0 -5 -9 -10 -20 -10 -11 0 -20 5 -20 10 0 6 9 10 20 10 11 0 20
-4 20 -10z"/>
<path d="M4514 2131 c-2 -2 -4 -24 -4 -48 0 -32 4 -43 15 -43 11 0 15 11 15
35 0 22 6 38 15 41 8 4 15 9 15 13 0 7 -49 9 -56 2z"/>
<path d="M4600 2088 c0 -26 5 -48 10 -48 6 0 10 18 10 39 0 24 5 41 14 44 20
8 26 -2 26 -45 0 -21 5 -38 11 -38 6 0 9 19 7 48 l-3 47 -37 0 -38 1 0 -48z"/>
<path d="M5462 2132 c-10 -7 -9 -15 3 -43 l15 -34 -2 30 c-1 17 1 36 5 43 9
14 -2 16 -21 4z"/>
<path d="M4112 2118 c-33 -33 6 -96 53 -84 33 8 32 22 -2 21 -14 0 -28 6 -30
13 -3 8 6 12 26 12 19 0 31 5 31 13 0 19 -21 37 -45 37 -12 0 -26 -5 -33 -12z
m53 -8 c3 -5 -3 -10 -14 -10 -12 0 -21 5 -21 10 0 6 6 10 14 10 8 0 18 -4 21
-10z"/>
<path d="M5410 2099 c0 -13 5 -31 10 -39 7 -11 8 -5 4 20 -8 43 -14 51 -14 19z"/>
<path d="M3621 2013 c-31 -21 -26 -51 14 -87 19 -18 35 -37 35 -44 0 -20 -21
-24 -45 -8 -22 14 -25 14 -25 2 0 -16 29 -36 54 -36 22 0 46 28 46 55 0 15
-13 34 -37 52 -26 21 -34 35 -30 47 6 14 11 15 28 6 22 -12 35 -8 25 8 -10 17
-44 20 -65 5z"/>
<path d="M5477 2023 c-12 -11 -8 -41 6 -46 9 -4 8 -8 -3 -16 -13 -9 -13 -11 3
-11 18 0 24 34 7 45 -5 3 -10 11 -10 16 0 6 5 7 10 4 6 -3 10 -1 10 4 0 12
-13 14 -23 4z"/>
<path d="M4384 2000 c-79 -32 -81 -142 -5 -172 33 -12 87 -2 95 18 5 12 2 14
-11 9 -41 -17 -62 -16 -82 4 -30 30 -28 81 5 112 24 23 26 23 54 7 27 -15 40
-14 40 3 0 7 -56 30 -69 28 -3 0 -16 -4 -27 -9z"/>
<path d="M5436 1978 c3 -30 3 -31 -5 -8 l-9 25 -1 -28 c-1 -40 23 -29 27 11 2
18 -1 32 -6 32 -5 0 -7 -15 -6 -32z"/>
<path d="M4183 1951 c-6 -10 -8 -22 -3 -27 5 -5 10 -29 12 -54 3 -38 7 -46 26
-48 12 -2 22 1 22 7 0 6 -4 11 -10 11 -15 0 -12 77 3 84 10 5 10 7 0 12 -7 3
-13 12 -13 20 0 20 -23 17 -37 -5z"/>
<path d="M3732 1900 c22 -67 40 -76 58 -27 l12 32 12 -34 c7 -19 17 -36 23
-38 6 -2 23 22 37 53 29 64 29 64 17 64 -5 0 -15 -16 -22 -35 -16 -44 -26 -44
-37 -2 -11 42 -32 41 -47 -3 -9 -24 -15 -30 -19 -20 -3 8 -10 27 -15 43 -6 15
-17 27 -25 27 -12 0 -11 -10 6 -60z"/>
<path d="M4768 1953 c-27 -4 -28 -7 -28 -59 0 -41 4 -54 15 -54 11 0 15 11 15
38 0 45 13 67 34 59 11 -5 16 -19 16 -52 0 -25 5 -45 10 -45 7 0 10 22 8 58
-3 62 -7 65 -70 55z"/>
<path d="M3926 1928 c-29 -41 -14 -83 34 -100 19 -7 60 8 60 22 0 7 -6 8 -19
0 -22 -11 -47 -5 -55 15 -7 20 10 28 44 20 25 -6 30 -3 30 13 0 24 -30 52 -58
52 -11 0 -28 -10 -36 -22z m64 -13 c0 -8 -9 -15 -20 -15 -11 0 -20 7 -20 15 0
8 9 15 20 15 11 0 20 -7 20 -15z"/>
<path d="M4060 1930 c-51 -51 5 -130 74 -104 9 3 16 13 16 22 0 12 -3 13 -12
4 -18 -18 -46 -14 -58 8 -10 18 -8 20 30 20 33 0 40 3 40 19 0 20 -35 51 -57
51 -7 0 -22 -9 -33 -20z m60 -15 c0 -8 -9 -15 -20 -15 -20 0 -26 11 -13 23 12
13 33 7 33 -8z"/>
<path d="M4520 1930 c-40 -40 -16 -103 38 -103 42 0 62 19 62 59 0 60 -58 86
-100 44z m68 -43 c2 -27 -1 -39 -13 -43 -35 -14 -61 46 -33 74 23 23 43 9 46
-31z"/>
<path d="M4650 1888 c0 -45 3 -58 15 -58 11 0 15 12 15 46 0 37 4 47 20 51 32
9 23 21 -15 20 l-35 -1 0 -58z"/>
<path d="M5105 1100 c-3 -5 -1 -10 4 -10 6 0 11 5 11 10 0 6 -2 10 -4 10 -3 0
-8 -4 -11 -10z"/>
<path d="M3360 1044 c0 -8 5 -12 10 -9 6 4 8 11 5 16 -9 14 -15 11 -15 -7z"/>
<path d="M4930 1025 c-10 -12 -10 -15 4 -15 9 0 16 7 16 15 0 8 -2 15 -4 15
-2 0 -9 -7 -16 -15z"/>
<path d="M3170 1010 c0 -5 5 -10 10 -10 6 0 10 5 10 10 0 6 -4 10 -10 10 -5 0
-10 -4 -10 -10z"/>
<path d="M4775 984 c-4 -22 -11 -45 -17 -51 -8 -10 -6 -13 6 -13 9 0 16 4 16
10 0 5 12 21 27 35 22 19 24 25 11 25 -9 0 -21 7 -26 16 -7 13 -11 8 -17 -22z"/>
<path d="M4570 940 c0 -14 -7 -37 -14 -52 -8 -15 -11 -30 -6 -33 16 -10 58 6
81 31 16 17 18 23 7 19 -10 -4 -24 5 -42 27 -25 33 -26 33 -26 8z"/>
<path d="M5407 953 c-11 -11 -8 -95 3 -88 6 4 10 -6 10 -22 0 -22 -2 -25 -10
-13 -8 12 -10 9 -10 -12 0 -37 18 -45 30 -13 14 38 12 71 -5 89 -17 17 -20 36
-5 36 6 0 10 7 10 15 0 16 -12 20 -23 8z"/>
<path d="M5365 936 c-3 -9 -7 -23 -10 -31 -2 -8 0 -15 5 -15 5 0 11 8 14 18 5
17 2 -9 -10 -95 -4 -28 -3 -43 4 -43 17 0 26 22 12 30 -10 6 -10 15 -1 40 6
18 11 48 11 66 0 35 -17 55 -25 30z"/>
<path d="M5287 913 c-4 -3 -7 -21 -7 -40 0 -23 5 -33 15 -33 10 0 15 -10 15
-30 0 -16 -4 -30 -10 -30 -5 0 -10 5 -10 12 0 6 -3 9 -6 5 -3 -3 -3 -16 1 -28
7 -22 8 -22 21 -4 18 25 18 80 -1 99 -17 17 -20 36 -5 36 6 0 10 5 10 10 0 11
-13 13 -23 3z"/>
<path d="M5247 898 c-2 -7 -1 -44 3 -83 l7 -70 2 83 c1 79 -2 96 -12 70z"/>
<path d="M4386 885 c-3 -10 -3 -22 3 -28 12 -12 20 4 11 27 -6 19 -7 19 -14 1z"/>
<path d="M5160 874 c-13 -33 -13 -96 1 -131 10 -27 11 -27 25 -9 14 20 20 120
8 150 -9 24 -23 19 -34 -10z m30 -65 c0 -44 -3 -60 -12 -57 -15 5 -22 69 -13
105 10 42 25 14 25 -48z"/>
<path d="M5111 881 c-9 -6 -10 -11 -2 -15 6 -4 12 -39 12 -79 2 -85 7 -71 11
31 4 74 3 78 -21 63z"/>
<path d="M5057 873 c-3 -5 -5 -43 -4 -85 1 -68 3 -78 19 -78 10 0 18 5 18 10
0 6 -7 10 -15 10 -9 0 -15 9 -15 25 0 14 7 28 15 31 8 4 15 10 15 15 0 5 -7 9
-15 9 -8 0 -15 9 -15 20 0 11 7 23 15 26 8 4 15 10 15 15 0 11 -27 12 -33 2z"/>
<path d="M3980 856 c0 -9 5 -16 10 -16 6 0 10 4 10 9 0 6 -4 13 -10 16 -5 3
-10 -1 -10 -9z"/>
<path d="M4992 785 l1 -90 7 64 c4 36 4 76 0 90 -5 17 -8 -6 -8 -64z"/>
<path d="M5020 855 c0 -8 2 -15 4 -15 2 0 6 7 10 15 3 8 1 15 -4 15 -6 0 -10
-7 -10 -15z"/>
<path d="M4905 847 c-3 -7 -5 -47 -3 -88 2 -58 6 -74 18 -74 12 0 15 16 15 84
0 59 -4 86 -12 88 -7 3 -15 -2 -18 -10z m25 -77 c0 -40 -4 -70 -10 -70 -6 0
-10 30 -10 70 0 40 4 70 10 70 6 0 10 -30 10 -70z"/>
<path d="M4198 844 c-5 -4 -8 -19 -8 -34 0 -28 -27 -60 -51 -60 -8 -1 4 -7 26
-15 35 -13 41 -12 57 2 22 19 23 37 4 53 -8 6 -16 23 -18 37 -2 14 -6 21 -10
17z"/>
<path d="M4834 823 c-5 -19 -1 -38 14 -64 12 -21 22 -43 22 -48 0 -18 -28 -12
-33 7 -4 14 -5 14 -6 -3 0 -11 3 -26 8 -34 8 -12 12 -12 25 -2 22 18 20 57 -5
97 -22 37 -17 68 7 37 14 -19 19 -7 8 21 -10 25 -33 19 -40 -11z"/>
<path d="M4717 834 c-11 -11 -8 -174 3 -174 6 0 10 18 10 39 0 26 5 41 16 45
21 8 16 90 -6 94 -9 1 -19 0 -23 -4z m33 -50 c0 -13 -4 -24 -10 -24 -5 0 -10
14 -10 31 0 17 4 28 10 24 6 -3 10 -17 10 -31z"/>
<path d="M4780 755 c0 -78 2 -85 20 -85 11 0 20 5 20 10 0 6 -7 10 -15 10 -21
0 -19 50 3 66 16 13 16 13 0 14 -12 0 -18 8 -18 21 0 12 8 28 18 35 16 12 15
13 -5 14 -22 0 -23 -3 -23 -85z"/>
<path d="M4566 805 c-3 -11 -6 -33 -7 -50 -1 -25 -3 -22 -15 20 l-13 50 4 -63
c6 -75 14 -112 26 -112 5 0 9 15 9 34 0 70 12 125 26 119 10 -4 15 -27 16 -82
l2 -76 3 75 c2 41 8 79 13 84 18 18 10 27 -24 24 -25 -1 -36 -8 -40 -23z"/>
<path d="M4671 814 c0 -11 3 -14 6 -6 3 7 2 16 -1 19 -3 4 -6 -2 -5 -13z"/>
<path d="M4270 730 c0 -53 4 -90 10 -90 6 0 11 19 11 43 l1 42 11 -42 c16 -69
27 -50 27 47 0 53 -4 90 -10 90 -5 0 -11 -21 -11 -47 l-1 -48 -10 48 c-16 74
-28 55 -28 -43z"/>
<path d="M4350 730 c0 -83 1 -90 20 -90 11 0 20 7 20 15 0 8 -7 15 -15 15 -9
0 -15 9 -15 25 0 14 7 28 15 31 8 4 15 10 15 15 0 5 -7 9 -15 9 -9 0 -15 9
-15 25 0 16 6 25 15 25 8 0 15 5 15 10 0 6 -9 10 -20 10 -19 0 -20 -7 -20 -90z"/>
<path d="M4400 810 c0 -5 5 -10 10 -10 6 0 11 -35 12 -82 l2 -83 3 75 c2 41 8
79 13 84 17 17 11 26 -15 26 -14 0 -25 -4 -25 -10z"/>
<path d="M4495 758 c3 -35 8 -73 11 -86 7 -36 24 -15 24 31 0 31 -3 38 -10 27
-7 -11 -10 0 -10 38 0 29 -5 52 -10 52 -7 0 -9 -22 -5 -62z"/>
<path d="M3921 774 c-12 -15 -21 -33 -21 -40 0 -27 20 -64 45 -80 21 -14 30
-14 54 -5 29 13 51 47 51 80 0 34 -39 71 -75 71 -24 0 -39 -7 -54 -26z m94 -4
c21 -24 24 -72 5 -94 -31 -39 -102 -4 -102 49 0 56 61 85 97 45z"/>
<path d="M3940 731 c0 -40 25 -64 51 -51 21 12 28 80 8 80 -6 0 -9 -14 -7 -32
2 -25 -1 -34 -14 -36 -15 -3 -18 4 -18 32 0 20 -4 36 -10 36 -5 0 -10 -13 -10
-29z"/>
<path d="M3790 765 c-1 -52 -10 -74 -28 -68 -10 3 -5 -4 10 -16 26 -21 28 -21
60 -5 45 23 44 21 17 46 -13 13 -32 34 -41 48 l-17 25 -1 -30z"/>
<path d="M4662 760 c0 -19 2 -27 5 -17 2 9 2 25 0 35 -3 9 -5 1 -5 -18z"/>
<path d="M5018 740 c2 -22 6 -40 8 -40 2 0 4 18 4 40 0 22 -3 40 -8 40 -4 0
-6 -18 -4 -40z"/>
<path d="M4080 750 c0 -5 9 -10 20 -10 11 0 20 5 20 10 0 6 -9 10 -20 10 -11
0 -20 -4 -20 -10z"/>
<path d="M4650 683 c-3 -23 -2 -39 3 -34 5 5 7 24 5 42 -3 33 -4 33 -8 -8z"/>
<path d="M5244 695 c-10 -8 -14 -15 -8 -15 6 0 17 7 24 15 16 19 9 19 -16 0z"/>
<path d="M5610 685 c-8 -14 -29 -35 -47 -46 -42 -26 -44 -37 -2 -12 33 19 76
69 68 78 -3 3 -12 -6 -19 -20z"/>
<path d="M2805 661 c20 -24 112 -81 130 -81 6 0 -15 14 -45 31 -30 16 -66 40
-80 52 l-25 22 20 -24z"/>
<path d="M5179 653 c-13 -15 -12 -15 11 -3 34 17 36 20 18 20 -9 0 -22 -7 -29
-17z"/>
<path d="M5120 620 c-9 -6 -10 -10 -3 -10 6 0 15 5 18 10 8 12 4 12 -15 0z"/>
<path d="M2950 575 c0 -5 157 -55 173 -54 7 0 -28 14 -78 30 -101 32 -95 31
-95 24z"/>
<path d="M4793 539 c-46 -13 -41 -20 12 -18 29 2 45 7 45 16 0 15 -11 15 -57
2z"/>
<path d="M4670 525 l-45 -13 51 -1 c38 -1 53 3 58 14 6 18 -3 18 -64 0z"/>
<path d="M3660 521 c-45 -6 -45 -6 25 -14 39 -4 204 -10 368 -14 253 -5 297
-4 292 8 -4 12 -57 14 -308 14 -166 0 -309 3 -317 6 -8 3 -35 3 -60 0z"/>
<path d="M3185 504 c28 -7 57 -13 65 -13 8 0 -7 7 -35 15 -27 7 -57 13 -65 13
-8 0 8 -7 35 -15z"/>
<path d="M4468 503 c7 -3 16 -2 19 1 4 3 -2 6 -13 5 -11 0 -14 -3 -6 -6z"/>
<path d="M4533 503 c9 -2 23 -2 30 0 6 3 -1 5 -18 5 -16 0 -22 -2 -12 -5z"/>
<path d="M3638 433 c7 -3 16 -2 19 1 4 3 -2 6 -13 5 -11 0 -14 -3 -6 -6z"/>
<path d="M3788 423 c6 -2 18 -2 25 0 6 3 1 5 -13 5 -14 0 -19 -2 -12 -5z"/>
<path d="M4618 423 c7 -3 16 -2 19 1 4 3 -2 6 -13 5 -11 0 -14 -3 -6 -6z"/>
<path d="M3933 413 c15 -2 37 -2 50 0 12 2 0 4 -28 4 -27 0 -38 -2 -22 -4z"/>
<path d="M4098 413 c17 -2 47 -2 65 0 17 2 3 4 -33 4 -36 0 -50 -2 -32 -4z"/>
<path d="M4308 413 c12 -2 32 -2 45 0 12 2 2 4 -23 4 -25 0 -35 -2 -22 -4z"/>
<path d="M4453 413 c9 -2 25 -2 35 0 9 3 1 5 -18 5 -19 0 -27 -2 -17 -5z"/>
</g>
</svg>
