<?xml version="1.0" standalone="no"?>
<!DOCTYPE svg PUBLIC "-//W3C//DTD SVG 20010904//EN"
 "http://www.w3.org/TR/2001/REC-SVG-20010904/DTD/svg10.dtd">
<svg version="1.0" xmlns="http://www.w3.org/2000/svg"
 width="840.000000pt" height="593.000000pt" viewBox="0 0 840.000000 593.000000"
 preserveAspectRatio="xMidYMid meet">

<g transform="translate(0.000000,593.000000) scale(0.100000,-0.100000)"
fill="#000000" stroke="none">
<path d="M2435 5504 c-50 -18 -102 -67 -126 -119 -16 -34 -19 -66 -19 -218 0
-194 7 -226 58 -280 42 -44 97 -68 174 -74 l70 -6 -4 -126 c-5 -185 -20 -213
-243 -441 -94 -96 -185 -194 -203 -216 -45 -58 -88 -148 -114 -240 l-23 -79 0
-1255 c0 -1166 1 -1260 18 -1330 44 -189 167 -360 331 -459 74 -44 205 -88
288 -97 60 -6 72 -11 110 -45 167 -155 410 -157 568 -3 l45 43 735 3 735 3 88
31 c199 72 343 202 427 388 62 136 62 141 67 723 l5 532 71 21 c134 41 229 98
363 217 246 218 463 607 519 928 20 117 20 292 0 370 -88 340 -404 469 -853
349 -51 -14 -128 -39 -171 -55 l-78 -31 -160 164 c-189 191 -217 224 -252 298
-22 48 -26 71 -29 181 l-4 126 70 6 c81 7 137 32 177 79 50 59 55 83 55 275 0
199 -8 230 -71 290 -70 67 7 63 -1353 62 -1052 0 -1237 -3 -1271 -15z m2516
-163 c22 -18 24 -27 27 -141 4 -142 -2 -184 -29 -211 -19 -19 -44 -19 -1239
-19 -1201 0 -1220 0 -1240 20 -28 28 -32 53 -28 200 3 124 4 133 27 151 23 18
57 19 1241 19 1184 0 1218 -1 1241 -19z m106 -1303 c29 -29 53 -58 53 -64 0
-6 -39 -36 -87 -67 -119 -75 -267 -200 -344 -289 l-63 -73 -75 4 c-42 2 -78 5
-81 7 -6 6 522 534 535 534 5 0 33 -23 62 -52z m-1872 -23 c49 -48 23 -117
-50 -131 -57 -10 -211 0 -230 16 -43 35 -38 106 8 128 12 6 73 11 135 11 107
1 114 0 137 -24z m1319 14 c47 -22 53 -94 11 -129 -19 -16 -173 -26 -230 -16
-73 14 -99 83 -50 131 23 24 31 25 134 25 61 0 121 -5 135 -11z m1410 -19
c145 -21 250 -97 297 -216 21 -53 24 -74 23 -204 0 -157 -13 -224 -73 -389
-85 -229 -250 -475 -418 -623 -234 -207 -473 -251 -708 -132 -126 64 -25 156
-976 -896 -460 -509 -854 -937 -875 -953 -23 -16 -64 -32 -99 -38 -205 -39
-367 169 -283 363 19 46 109 130 949 889 511 462 935 849 944 861 22 32 19 50
-19 126 -56 111 -69 169 -64 291 5 120 35 212 101 312 200 302 642 567 1012
608 101 12 112 12 189 1z m-1389 -637 c-63 -157 -82 -265 -65 -384 13 -93 25
-138 56 -207 13 -30 23 -56 22 -57 -2 -1 -51 -45 -110 -98 -58 -54 -112 -97
-118 -97 -31 0 -194 122 -286 214 -73 73 -126 138 -190 236 -72 108 -101 144
-151 181 -331 250 -803 18 -803 -395 0 -136 42 -246 128 -339 26 -27 104 -87
175 -134 147 -97 274 -218 355 -337 28 -43 52 -81 51 -84 0 -4 -99 -96 -220
-204 l-220 -198 -156 0 c-174 0 -211 11 -249 73 -18 31 -19 63 -19 887 0 804
1 857 18 888 10 18 32 42 50 52 31 19 57 20 886 20 809 0 853 -1 846 -17z
m-1004 -290 c69 -31 116 -78 195 -198 125 -190 260 -328 423 -433 l53 -34 -28
-28 c-16 -15 -125 -114 -243 -221 -191 -173 -215 -191 -225 -175 -36 61 -156
203 -227 270 -46 43 -142 117 -213 165 -99 65 -138 98 -163 135 -95 139 -79
328 37 444 45 45 103 79 155 93 54 14 186 4 236 -18z m1177 -1285 c-3 -251 -8
-267 -79 -307 -35 -20 -50 -21 -231 -19 l-194 3 245 272 c135 150 250 272 254
273 5 0 7 -100 5 -222z m-2128 -188 c0 -162 128 -285 309 -297 l78 -6 -106
-97 c-58 -54 -118 -111 -132 -126 -65 -70 -105 -197 -97 -303 l5 -53 -39 6
c-54 9 -162 65 -226 117 -100 82 -175 222 -196 368 l-7 44 198 199 c108 109
201 198 205 198 4 0 8 -22 8 -50z"/>
</g>
</svg>
