<?xml version="1.0" standalone="no"?>
<!DOCTYPE svg PUBLIC "-//W3C//DTD SVG 20010904//EN"
 "http://www.w3.org/TR/2001/REC-SVG-20010904/DTD/svg10.dtd">
<svg version="1.0" xmlns="http://www.w3.org/2000/svg"
 width="840.000000pt" height="561.000000pt" viewBox="0 0 840.000000 561.000000"
 preserveAspectRatio="xMidYMid meet">

<g transform="translate(0.000000,561.000000) scale(0.100000,-0.100000)"
fill="#000000" stroke="none">
<path d="M4040 5173 c-84 -31 -108 -161 -51 -277 37 -75 102 -149 128 -144 30
5 66 127 66 223 1 64 -4 90 -22 128 -29 61 -75 87 -121 70z m85 -87 c24 -33
27 -124 6 -201 -19 -68 -26 -73 -57 -44 -60 55 -95 192 -63 250 24 45 78 42
114 -5z"/>
<path d="M4968 5061 c-125 -40 -195 -102 -261 -231 -23 -47 -57 -108 -75 -136
-56 -87 -55 -104 26 -267 121 -245 162 -393 162 -583 0 -77 -3 -104 -12 -104
-7 1 -33 5 -58 10 -54 10 -845 -5 -1010 -20 -316 -28 -519 -73 -679 -151 -98
-48 -114 -60 -221 -168 -127 -128 -167 -193 -196 -318 -20 -89 -12 -128 38
-179 l40 -42 9 -143 c4 -79 11 -160 14 -179 2 -19 9 -165 15 -325 12 -329 20
-428 56 -675 30 -212 45 -274 90 -365 61 -125 214 -305 334 -392 184 -133 489
-261 770 -321 223 -48 532 -54 731 -13 308 63 638 239 724 385 71 123 252 781
309 1126 25 150 72 497 101 746 17 140 19 147 57 196 55 71 61 99 55 250 -7
155 -15 181 -82 270 -60 80 -72 121 -57 202 26 141 7 213 -74 285 -61 53 -118
78 -230 101 -127 25 -164 45 -190 101 -12 24 -24 61 -27 82 -6 36 -4 39 47 77
67 49 90 78 116 146 57 155 24 333 -92 490 -103 138 -272 195 -430 145z m268
-61 c113 -55 177 -141 214 -286 35 -137 22 -257 -39 -341 -23 -32 -55 -54
-148 -101 -166 -85 -272 -182 -351 -321 -19 -36 -37 -60 -38 -55 -2 5 -15 62
-29 128 -43 194 -71 267 -179 470 -56 106 -56 109 18 221 29 44 66 104 81 133
88 164 303 234 471 152z m49 -812 c3 -24 17 -66 31 -94 30 -63 69 -86 193
-113 157 -34 254 -89 292 -163 19 -38 20 -51 14 -173 -8 -144 -4 -159 55 -235
65 -84 89 -185 70 -297 -6 -37 -13 -79 -14 -93 -5 -46 -38 -95 -127 -184 l-89
-89 -74 6 c-86 6 -138 28 -154 62 -8 16 -25 28 -54 35 -206 53 -248 90 -248
217 0 110 -23 143 -144 206 -106 55 -140 91 -166 173 -35 114 -24 251 31 395
39 101 93 184 173 263 57 57 160 124 193 126 6 0 14 -19 18 -42z m-565 -488
c106 -17 100 -12 100 -92 0 -68 -1 -70 -22 -65 -155 39 -552 53 -728 27 -36
-6 -141 -17 -235 -25 -343 -32 -566 -77 -752 -155 -167 -70 -233 -137 -233
-238 0 -146 138 -239 564 -381 273 -91 397 -120 666 -152 212 -26 481 -30 645
-10 219 27 457 86 614 150 90 38 124 39 154 7 16 -17 42 -27 95 -37 40 -7 71
-18 69 -24 -6 -19 -263 -141 -373 -178 -235 -77 -427 -101 -834 -101 -341 -1
-429 8 -665 69 -225 58 -737 239 -872 309 -106 55 -220 145 -229 182 -12 49 5
128 46 211 33 66 60 101 138 180 186 187 344 246 812 299 233 26 924 42 1040
24z m-14 -175 l120 -17 23 -73 c30 -99 69 -142 176 -194 60 -30 90 -51 100
-71 8 -16 15 -31 15 -34 0 -3 -21 2 -46 11 -32 11 -68 14 -120 11 -68 -5 -79
-8 -149 -56 -156 -105 -302 -94 -462 35 -126 103 -231 153 -319 153 -114 0
-221 -42 -319 -127 -85 -73 -121 -92 -185 -100 -84 -10 -165 12 -265 72 -159
95 -260 95 -344 0 -17 -20 -36 -33 -41 -30 -17 11 -11 88 10 122 55 92 263
185 515 232 61 11 209 32 330 46 121 14 256 29 300 34 127 15 521 6 661 -14z
m-511 -297 c28 -14 93 -60 145 -102 118 -94 176 -119 286 -119 78 -1 84 1 202
57 91 44 135 59 179 63 72 5 126 -18 131 -57 8 -64 35 -120 76 -158 40 -37
136 -82 173 -82 59 0 -149 -78 -332 -126 -516 -133 -1027 -100 -1647 106 -414
138 -511 196 -474 285 16 37 51 59 118 74 56 13 106 0 174 -45 104 -69 137
-79 269 -79 111 0 124 2 170 27 28 14 70 47 95 73 80 83 169 116 300 111 68
-2 95 -8 135 -28z m-1350 -423 c94 -53 185 -90 505 -205 492 -176 677 -212
1075 -212 303 1 580 31 795 88 246 64 422 156 567 297 29 28 55 48 58 45 3 -3
-6 -84 -19 -179 -14 -96 -28 -204 -32 -241 -4 -38 -12 -74 -18 -82 -6 -8 -67
-32 -136 -54 -336 -108 -606 -161 -933 -184 -553 -38 -1123 122 -1854 519 -73
39 -83 48 -83 72 0 16 -3 62 -6 104 -4 43 -5 77 -2 77 2 0 40 -20 83 -45z
m225 -349 c454 -231 903 -364 1340 -396 362 -27 825 39 1263 180 55 17 100 30
102 28 5 -5 -82 -518 -103 -608 -11 -47 -37 -139 -57 -204 -20 -66 -45 -156
-55 -199 -11 -44 -23 -84 -27 -88 -16 -16 -214 -109 -329 -154 -139 -55 -342
-109 -475 -125 -140 -18 -718 -8 -819 13 -155 33 -298 68 -375 94 -202 66
-423 198 -577 345 l-86 83 -7 65 c-3 36 -13 115 -20 175 -25 192 -65 756 -65
908 l0 38 93 -51 c50 -28 139 -75 197 -104z m-108 -1156 c259 -216 586 -360
949 -417 145 -23 697 -26 849 -5 209 29 422 93 658 196 l103 45 -6 -32 c-15
-70 -68 -189 -109 -245 -56 -76 -117 -120 -268 -191 -246 -118 -405 -159 -648
-168 -222 -8 -449 22 -672 91 -105 32 -379 152 -469 206 -193 115 -374 321
-432 494 -14 42 -23 76 -21 76 3 0 32 -23 66 -50z"/>
<path d="M4962 4740 c-36 -22 -52 -54 -52 -103 0 -21 -9 -40 -25 -56 -49 -46
-31 -167 31 -207 33 -22 64 -8 100 46 15 22 28 40 31 40 2 0 17 -10 33 -21 60
-45 120 10 120 109 0 68 -20 107 -65 123 -22 8 -35 20 -35 30 0 24 -47 59 -79
59 -14 0 -41 -9 -59 -20z m105 -26 c3 -10 1 -30 -4 -45 -12 -31 0 -50 20 -30
19 19 55 12 76 -15 43 -55 15 -174 -40 -174 -11 0 -31 11 -45 25 -14 14 -29
25 -35 25 -6 0 -19 -20 -29 -44 -25 -54 -43 -70 -74 -62 -27 7 -56 59 -56 103
0 39 27 76 51 70 17 -5 19 1 16 60 -2 57 1 67 22 84 29 24 89 26 98 3z"/>
<path d="M5126 3982 c-3 -3 -6 -9 -6 -14 0 -11 37 -10 44 1 6 10 -30 22 -38
13z"/>
<path d="M5210 3765 c0 -8 7 -15 16 -15 14 0 14 3 4 15 -7 8 -14 15 -16 15 -2
0 -4 -7 -4 -15z"/>
<path d="M5130 3685 c0 -8 7 -15 16 -15 14 0 14 3 4 15 -7 8 -14 15 -16 15 -2
0 -4 -7 -4 -15z"/>
<path d="M5382 3138 c-14 -14 -16 -38 -3 -38 5 0 14 7 21 15 17 20 0 41 -18
23z"/>
<path d="M5440 3115 c0 -8 5 -15 10 -15 6 0 10 7 10 15 0 8 -4 15 -10 15 -5 0
-10 -7 -10 -15z"/>
<path d="M5646 2884 c-3 -9 -6 -23 -6 -31 0 -13 3 -13 15 -3 16 13 21 50 6 50
-5 0 -12 -7 -15 -16z"/>
<path d="M5686 2883 c-9 -9 -7 -33 3 -33 12 0 22 28 12 34 -5 3 -11 3 -15 -1z"/>
<path d="M4465 3327 c-17 -27 -10 -62 18 -85 19 -16 62 -1 77 29 10 18 8 25
-11 44 -38 36 -65 40 -84 12z m49 -23 c20 -8 21 -30 1 -38 -15 -5 -39 26 -28
38 8 7 8 7 27 0z"/>
<path d="M3593 2983 c-7 -2 -13 -9 -13 -14 0 -13 31 -10 60 6 l25 14 -30 0
c-16 0 -36 -3 -42 -6z"/>
<path d="M3960 2935 c-6 -8 -10 -22 -8 -32 3 -16 5 -16 23 5 11 12 27 22 36
22 20 0 49 -31 49 -54 0 -9 5 -14 10 -11 17 11 11 35 -16 60 -30 28 -75 33
-94 10z"/>
<path d="M4780 2870 c-27 -27 -16 -46 16 -26 13 9 37 16 54 16 32 0 40 14 14
24 -30 12 -64 6 -84 -14z"/>
<path d="M4468 2829 c-18 -10 -25 -59 -9 -59 5 0 16 11 25 25 20 31 33 31 63
3 18 -16 23 -18 23 -6 0 38 -62 61 -102 37z"/>
<path d="M2947 2038 c-64 -86 -63 -79 -17 -160 23 -40 63 -104 89 -142 46 -68
46 -69 51 -168 l6 -100 42 -39 c23 -22 47 -37 52 -34 6 3 10 54 10 113 l0 107
83 80 c46 44 100 89 121 100 35 18 37 23 33 55 -2 20 -15 59 -27 87 l-22 52
-47 -31 c-25 -18 -70 -51 -100 -75 l-54 -44 -69 68 c-38 37 -78 87 -89 110
-11 24 -25 45 -29 48 -5 3 -20 -9 -33 -27z m118 -136 l88 -109 96 74 c53 40
99 73 102 73 7 0 16 -19 29 -63 8 -26 3 -32 -106 -123 -63 -53 -116 -106 -119
-118 -3 -11 -6 -59 -7 -106 l-3 -85 -19 28 c-13 20 -20 51 -23 105 -6 106 -8
112 -51 168 -22 27 -58 86 -81 131 -41 79 -42 82 -26 107 10 14 20 26 24 26 4
0 47 -49 96 -108z"/>
<path d="M5492 1827 c-14 -98 -15 -167 -3 -186 8 -12 13 -12 36 3 37 24 65 90
65 154 0 46 -4 58 -29 83 -47 46 -56 39 -69 -54z m66 12 c24 -45 -5 -143 -47
-157 -13 -4 -11 35 5 151 7 42 22 44 42 6z"/>
<path d="M3495 1831 c-92 -55 -155 -227 -131 -355 8 -44 59 -104 103 -122 104
-44 229 24 262 141 33 122 -12 281 -97 337 -35 23 -99 23 -137 -1z m142 -43
c52 -48 68 -95 68 -199 0 -90 -2 -98 -29 -133 -77 -101 -192 -109 -253 -18
-67 101 -16 313 88 365 43 22 93 16 126 -15z"/>
<path d="M3506 1648 c-22 -31 -20 -70 5 -102 22 -27 57 -34 77 -14 31 31 -6
138 -47 138 -11 0 -27 -10 -35 -22z m60 -44 c19 -28 9 -48 -22 -42 -20 3 -29
29 -20 54 8 21 24 17 42 -12z"/>
<path d="M5250 1798 c-144 -24 -252 -46 -267 -56 -8 -5 -8 -22 1 -67 l12 -60
58 -3 59 -3 -6 -52 c-4 -29 -10 -99 -13 -156 l-7 -103 34 7 c19 4 56 10 84 14
61 7 63 13 64 168 l1 113 65 29 65 30 0 65 c0 71 -6 97 -24 95 -6 -1 -63 -10
-126 -21z m124 -34 c22 -57 -6 -99 -77 -113 -48 -10 -57 -38 -57 -177 l0 -121
-56 -7 c-31 -4 -59 -4 -62 -1 -3 3 -1 62 5 131 14 164 14 164 -52 164 -53 0
-53 0 -60 36 -3 20 -5 38 -3 39 6 6 203 44 274 54 38 4 72 9 75 10 4 0 10 -6
13 -15z"/>
<path d="M3905 1757 c-49 -28 -109 -105 -136 -177 -27 -70 -36 -169 -19 -210
26 -63 110 -107 170 -90 23 7 30 5 30 -6 0 -29 38 -54 85 -54 l45 0 0 54 c0
80 4 86 55 80 41 -6 43 -5 54 26 13 39 15 117 2 124 -9 6 -104 19 -213 30
l-58 6 0 -43 c0 -34 4 -44 22 -52 49 -21 29 -75 -27 -75 -89 0 -102 144 -21
225 29 29 80 34 107 10 15 -15 20 -14 52 7 19 13 43 28 53 34 16 9 16 14 5 42
-8 18 -29 46 -48 62 -42 38 -99 40 -158 7z m119 -17 c14 -5 31 -21 39 -37 14
-25 13 -28 -9 -46 -16 -12 -31 -16 -46 -11 -62 19 -131 -4 -171 -58 -68 -91
-32 -229 64 -244 32 -5 37 -9 28 -20 -23 -28 -105 -10 -138 30 -76 91 27 348
154 385 41 12 50 12 79 1z m67 -245 c31 -4 65 -12 75 -19 16 -12 17 -18 5 -56
-10 -33 -16 -40 -29 -35 -9 3 -29 9 -44 12 -35 7 -50 -22 -46 -90 3 -49 1 -52
-21 -55 -15 -3 -30 3 -38 14 -17 24 -17 76 2 100 8 10 15 33 15 50 0 26 -6 34
-30 44 -18 8 -30 20 -30 31 0 16 6 18 43 14 23 -2 67 -7 98 -10z"/>
<path d="M4755 1730 c-44 -10 -73 -27 -91 -56 -16 -23 -16 -26 1 -38 17 -12
16 -18 -4 -138 -24 -145 -26 -191 -8 -206 6 -5 37 -13 69 -16 l56 -7 7 65 c9
79 18 82 79 26 24 -22 48 -40 53 -40 6 0 29 25 53 56 40 53 41 56 26 79 -9 14
-30 34 -46 47 -28 21 -40 48 -21 48 5 0 12 16 15 36 17 89 -86 168 -189 144z
m125 -49 c14 -10 29 -35 35 -56 8 -32 6 -39 -10 -51 -10 -8 -33 -14 -50 -14
-18 0 -35 -3 -38 -7 -13 -12 16 -33 47 -33 23 0 42 -11 73 -41 l42 -41 -31
-39 -31 -38 -32 27 c-38 34 -89 56 -110 48 -11 -4 -15 -21 -15 -65 0 -33 -4
-63 -10 -66 -5 -3 -28 -1 -50 5 l-41 11 6 47 c4 26 13 82 21 126 8 43 14 100
14 126 0 29 6 52 14 59 40 34 121 34 166 2z"/>
<path d="M4770 1624 c-14 -36 4 -68 29 -54 20 10 31 31 31 61 0 31 -48 25 -60
-7z"/>
<path d="M4311 1702 c-38 -15 -46 -23 -58 -62 -35 -114 -26 -297 18 -369 43
-71 125 -89 215 -47 93 43 124 116 124 291 0 62 -3 127 -6 144 -6 28 -10 31
-43 31 -57 0 -62 -8 -70 -108 -4 -50 -14 -98 -21 -107 -18 -22 -52 -15 -67 15
-15 30 -17 132 -3 180 15 53 -11 62 -89 32z m52 -113 c7 -92 27 -153 53 -163
22 -8 61 10 78 37 9 13 19 52 22 88 9 89 19 111 47 107 21 -3 22 -8 25 -106 6
-215 -55 -312 -196 -314 -49 0 -85 23 -109 70 -14 30 -18 60 -18 157 1 165 16
202 86 214 3 1 9 -40 12 -90z"/>
<path d="M5422 1498 c-18 -18 -14 -63 7 -82 41 -37 87 15 62 70 -12 26 -48 33
-69 12z m55 -34 c8 -21 -13 -42 -28 -27 -13 13 -5 43 11 43 6 0 13 -7 17 -16z"/>
<path d="M4239 4747 c-50 -26 -40 -108 15 -127 65 -21 101 24 69 88 -21 41
-50 55 -84 39z m51 -68 c0 -10 -6 -19 -13 -19 -22 0 -27 11 -16 32 12 22 29
15 29 -13z"/>
<path d="M3184 4711 c-34 -21 -64 -75 -64 -115 0 -40 24 -90 56 -115 23 -18
37 -21 69 -17 30 5 48 1 74 -15 42 -25 71 -19 94 20 44 75 -6 191 -105 242
-47 24 -85 24 -124 0z m113 -37 c51 -25 83 -78 83 -137 l0 -49 -37 7 c-21 4
-59 6 -85 6 -40 -1 -50 4 -72 30 -30 35 -33 76 -11 119 22 42 65 50 122 24z"/>
<path d="M2788 4580 c-50 -15 -93 -48 -115 -87 -50 -89 -38 -177 33 -251 43
-45 44 -45 96 -38 29 3 71 10 94 14 58 12 127 -8 170 -49 19 -18 34 -38 34
-44 0 -17 34 -45 55 -45 16 0 17 7 10 82 -4 46 -13 100 -20 121 -33 96 -147
237 -223 276 -48 24 -99 32 -134 21z m88 -45 c53 -22 167 -137 197 -199 30
-60 49 -134 37 -141 -4 -3 -25 9 -45 25 -51 41 -69 44 -201 36 l-112 -6 -26
30 c-65 78 -34 215 59 256 39 17 48 17 91 -1z"/>
<path d="M3422 4343 c-41 -16 -56 -127 -22 -158 32 -29 88 -25 116 9 64 74 -5
185 -94 149z m76 -81 c3 -27 -1 -34 -24 -42 -37 -15 -54 -6 -54 28 0 36 18 54
50 50 20 -2 26 -9 28 -36z"/>
<path d="M2440 4182 c-32 -26 -38 -91 -11 -116 45 -40 121 -10 121 48 0 26 -8
41 -31 60 -36 31 -49 32 -79 8z m64 -48 c7 -19 -10 -44 -31 -44 -19 0 -28 27
-13 45 16 20 36 19 44 -1z"/>
<path d="M3265 4016 c-22 -33 -13 -70 21 -92 32 -22 71 -6 80 32 17 67 -65
115 -101 60z m65 -30 c0 -20 -26 -40 -35 -26 -10 16 2 40 20 40 8 0 15 -6 15
-14z"/>
<path d="M2824 3966 c-147 -47 -256 -134 -314 -249 -37 -72 -37 -92 -1 -148
51 -81 137 -116 205 -84 46 22 80 65 146 185 91 166 122 195 205 195 44 0 50
3 53 22 13 89 -138 130 -294 79z m195 -27 c34 -12 40 -27 14 -35 -97 -30 -146
-80 -235 -240 -60 -109 -94 -144 -141 -144 -38 0 -90 30 -113 65 -34 52 6 139
104 226 123 109 274 162 371 128z"/>
<path d="M3833 3928 c-45 -12 -58 -39 -38 -78 21 -41 74 -43 104 -4 44 56 7
102 -66 82z m37 -43 c0 -16 -27 -32 -37 -21 -7 7 16 36 28 36 5 0 9 -7 9 -15z"/>
</g>
</svg>
